<?xml version="1.0" encoding="UTF-8"?>
<svg id="Layer_1" data-name="Layer 1" xmlns="http://www.w3.org/2000/svg" xmlns:xlink="http://www.w3.org/1999/xlink" viewBox="0 0 768 768">
  <defs>
    <style>
      .cls-1 {
        fill: none;
      }

      .cls-2 {
        fill: #c99;
      }

      .cls-3 {
        fill: #ededeb;
      }

      .cls-4 {
        clip-path: url(#clippath);
      }
    </style>
    <clipPath id="clippath">
      <rect class="cls-1" x="4.28" y="4.3" width="759.44" height="759.39"/>
    </clipPath>
  </defs>
  <g id="Group_331" data-name="Group 331">
    <g class="cls-4">
      <g id="Group_260" data-name="Group 260">
        <path id="Path_51" data-name="Path 51" class="cls-2" d="M128.59,664.36c-2.84-1.65-5.37-3.79-7.49-6.3-61.01-58.5-100.75-135.68-112.94-219.32-1.84-12.59-2.99-25.28-3.46-37.99-.31-7.58-.42-15.11-.42-22.62.88-61.16,16.56-121.19,45.7-174.96C94.92,120.35,168.98,57.14,257.83,25.78c23.19-8.16,47.12-14.06,71.45-17.62,12.41-1.79,24.91-2.93,37.44-3.44,7.84-.42,15.66-.42,23.48-.42,186.3,2.92,342.94,140.64,369.66,325.04,1.48,9.96,2.2,19.98,2.86,30.06.66,10.79,1.17,21.56.95,32.35-1.55,81.95-29.69,161.19-80.19,225.75-11.07,14.2-23.13,27.61-36.08,40.13-2.29,2.63-4.96,4.89-7.93,6.72-5.13-10.89-10.81-21.52-17.03-31.83-12.07-20.13-26.2-38.95-42.18-56.14-10.84-11.69-22.63-22.47-35.24-32.22-22.18-17.16-46.81-30.87-73.08-40.68-1.7-.75-3.66-.65-5.26.29-20.13,10.88-42.18,17.75-64.93,20.22-15.96,1.69-32.07,1.1-47.86-1.76-18.28-3.16-35.91-9.36-52.15-18.32-1.88-1.06-4.16-1.13-6.1-.2-13.27,5.06-26.15,11.07-38.54,17.99-20.91,11.77-40.23,26.17-57.48,42.84-11.86,11.42-22.81,23.76-32.75,36.89-14.92,19.57-27.72,40.67-38.19,62.95M384.17,207.22c-77.85-.09-141.04,62.94-141.13,140.79-.09,77.85,62.94,141.04,140.79,141.13,77.47.09,140.5-62.35,141.13-139.81.63-77.85-61.96-141.47-139.81-142.1-.32,0-.65,0-.97,0"/>
        <path id="Path_52" data-name="Path 52" class="cls-3" d="M128.57,664.36c10.48-22.27,23.29-43.37,38.21-62.95,9.93-13.14,20.87-25.47,32.73-36.89,17.25-16.68,36.57-31.07,57.48-42.84,12.39-6.93,25.27-12.95,38.54-17.99,1.94-.93,4.22-.86,6.1.2,30.54,16.66,65.41,23.66,100.01,20.09,22.75-2.47,44.8-9.34,64.93-20.22,1.61-.93,3.56-1.05,5.26-.31,26.26,9.82,50.9,23.53,73.08,40.68,12.61,9.77,24.39,20.55,35.24,32.24,15.97,17.19,30.11,36,42.18,56.12,6.22,10.31,11.9,20.94,17.03,31.85-1.5,3.63-5.02,5.4-7.75,7.71-8.08,6.81-16.14,13.61-24.84,19.67-10.59,7.4-21.23,14.71-32.46,21.14-11.43,6.59-23.19,12.58-35.24,17.95-12.03,5.46-24.35,10.25-36.91,14.34-8.7,2.75-17.42,5.42-26.28,7.6-14.17,3.58-28.56,6.25-43.08,7.97-9.05,1.04-18.08,2.07-27.2,2.51-12.29.59-24.58.51-36.87.2-32.22-1.19-64.16-6.52-95.01-15.86-10.14-2.91-20.13-6.35-29.91-10.31-11.34-4.76-22.58-9.69-33.52-15.42-8.65-4.4-17.14-9.15-25.48-14.23-6.61-3.96-12.73-8.63-19.16-12.84-10.08-6.87-19.73-14.35-28.9-22.4-2.91-2.44-6.61-4.4-8.22-8.11"/>
        <path id="Path_53" data-name="Path 53" class="cls-3" d="M384.19,207.2c77.85.11,140.87,63.3,140.77,141.15-.1,77.85-63.3,140.87-141.15,140.77-77.85-.1-140.87-63.3-140.77-141.15,0-.6,0-1.19.01-1.79,1.14-77.12,64.01-139.02,141.13-138.98"/>
      </g>
    </g>
  </g>
</svg>