<?xml version="1.0" encoding="UTF-8"?>
<svg id="Layer_1" data-name="Layer 1" xmlns="http://www.w3.org/2000/svg" viewBox="0 0 768 768">
  <defs>
    <style>
      .cls-1 {
        fill: #fff;
      }
    </style>
  </defs>
  <g id="Group_332" data-name="Group 332">
    <g id="Line_19" data-name="Line 19">
      <path class="cls-1" d="M737.07,167.76H41.38c-17.1,0-30.93-13.83-30.93-30.93s13.83-30.93,30.93-30.93h695.69c17.1,0,30.93,13.83,30.93,30.93s-13.83,30.93-30.93,30.93Z"/>
    </g>
    <g id="Line_20" data-name="Line 20">
      <path class="cls-1" d="M726.62,414.93H30.93c-17.1,0-30.93-13.83-30.93-30.93s13.83-30.93,30.93-30.93h695.69c17.1,0,30.93,13.83,30.93,30.93s-13.83,30.93-30.93,30.93Z"/>
    </g>
    <g id="Line_21" data-name="Line 21">
      <path class="cls-1" d="M726.62,662.1H30.93c-17.1,0-30.93-13.83-30.93-30.93s13.83-30.93,30.93-30.93h695.69c17.1,0,30.93,13.83,30.93,30.93s-13.83,30.93-30.93,30.93Z"/>
    </g>
  </g>
</svg>