<?xml version="1.0" encoding="UTF-8"?>
<svg id="Layer_1" data-name="Layer 1" xmlns="http://www.w3.org/2000/svg" viewBox="0 0 768 768">
  <defs>
    <style>
      .cls-1 {
        fill: #fff;
      }
    </style>
  </defs>
  <path id="Path_73" data-name="Path 73" class="cls-1" d="M595.29,124.86h-72.33v-41.79c-.23-9.01-6.76-16.62-15.63-18.22-9.95-1.5-19.24,5.35-20.74,15.3-.13.87-.2,1.76-.2,2.64v42.07h-204.89v-41.79c-.23-9.01-6.76-16.62-15.63-18.22-9.95-1.5-19.24,5.35-20.74,15.3-.13.87-.2,1.76-.2,2.64v42.07h-72.23c-43.29.02-78.4,35.07-78.49,78.36v421.78c.09,43.29,35.2,78.34,78.49,78.36h422.59c43.29-.02,78.4-35.07,78.49-78.36V203.22c-.09-43.29-35.2-78.34-78.49-78.36M172.36,160.81h72.67v41.73c.22,9.02,6.75,16.64,15.63,18.22,9.95,1.5,19.24-5.35,20.74-15.3.13-.87.2-1.76.2-2.64v-42.01h204.98v41.73c.22,9.02,6.75,16.64,15.63,18.22,9.93,1.52,19.21-5.3,20.73-15.23.14-.9.21-1.8.21-2.71v-42.01h72.05c23.28-.03,42.19,18.79,42.26,42.07v102.27H130.16v-102.24c.07-23.26,18.94-42.09,42.2-42.1M594.95,666.85H172.36c-23.26-.02-42.13-18.84-42.2-42.1v-283.09h507.14v283.09c-.07,23.29-18.97,42.12-42.26,42.1"/>
</svg>