<?xml version="1.0" encoding="UTF-8"?>
<svg id="Layer_1" data-name="Layer 1" xmlns="http://www.w3.org/2000/svg" viewBox="0 0 768 768">
  <defs>
    <style>
      .cls-1 {
        fill: #fff;
      }
    </style>
  </defs>
  <g id="Group_22" data-name="Group 22">
    <path id="Path_6" data-name="Path 6" class="cls-1" d="M376.9,691.01c-4.24,0-8.29-1.7-11.27-4.72l-73.3-73.87c-6.24-6.3-6.24-16.45,0-22.75,15.13-15.23,15.13-39.82,0-55.05-15.24-14.69-39.37-14.69-54.6,0-6.32,6.03-16.25,6.03-22.57,0l-73.36-73.9c-6.24-6.3-6.24-16.45,0-22.75L516.97,59.92c6.16-6.23,16.21-6.29,22.44-.13.04.04.08.09.13.13l73.3,73.87c6.24,6.3,6.24,16.45,0,22.75-15.13,15.23-15.13,39.82,0,55.05,14.93,15.09,39.27,15.21,54.36.28.1-.09.19-.18.28-.28,6.16-6.23,16.21-6.29,22.44-.13.04.04.08.09.13.13l73.3,73.87c6.22,6.31,6.22,16.44,0,22.75l-375.17,378.05c-2.98,3.01-7.03,4.71-11.27,4.72M324.88,599.74l52.02,52.41,352.57-355.33-52.02-52.47c-33.43,20.41-77.08,9.84-97.48-23.59-13.95-22.86-13.84-51.63.3-74.38l-51.99-52.29L175.67,449.43l52.02,52.41c27.84-17.43,64.05-13.22,87.15,10.13,23.21,23.48,27.34,59.78,10.01,87.87"/>
    <path id="Path_7" data-name="Path 7" class="cls-1" d="M445.06,532.73c-5.37,0-10.37-2.72-13.31-7.21l-33.06-50.22-64.19.6c-6.33.31-12.18-3.4-14.6-9.26-2.66-5.69-1.78-12.4,2.25-17.22l39.58-47.24-22.87-60.28c-2.26-5.93-.84-12.63,3.64-17.13,4.42-4.5,11.1-5.94,16.98-3.64l59.77,23.05,46.88-39.91c4.76-4.04,11.44-4.93,17.1-2.28,5.61,2.75,9.12,8.48,9.02,14.73l-.6,64.7,49.82,33.27c7.41,4.92,9.43,14.92,4.51,22.33-2.01,3.02-4.97,5.27-8.42,6.4l-58.63,19.05-18.87,59.08c-2.1,6.62-8.23,11.12-15.18,11.15M407.56,443.24c5.37.02,10.36,2.73,13.31,7.21l19.44,29.6,11.18-35.1c1.58-4.9,5.41-8.76,10.31-10.37l34.86-11.3-29.42-19.59c-4.52-3.02-7.22-8.12-7.15-13.55l.36-38.38-27.47,23.41c-4.42,3.8-10.58,4.85-16.02,2.73l-35.25-13.58,13.49,35.49c2.07,5.47,1.03,11.64-2.7,16.14l-23.2,27.68,38.05-.36.21-.03Z"/>
    <path id="Path_8" data-name="Path 8" class="cls-1" d="M651.24,409.19l-42.55-42.85,22.57-22.75,42.52,42.85-22.54,22.75ZM587.41,344.88l-42.52-42.85,22.57-22.75,42.55,42.85-22.6,22.75ZM523.61,280.56l-42.52-42.85,22.57-22.75,42.55,42.85-22.6,22.75ZM459.78,216.25l-42.37-42.82,22.57-22.75,42.55,42.88-22.75,22.69Z"/>
    <path id="Path_9" data-name="Path 9" class="cls-1" d="M240.23,713.31c-4.24,0-8.29-1.7-11.27-4.72l-73.3-73.87c-6.24-6.3-6.24-16.45,0-22.75,15.13-15.23,15.13-39.82,0-55.05-14.96-15.08-39.32-15.17-54.4-.21-.07.07-.14.14-.21.21-6.16,6.23-16.21,6.29-22.44.13-.04-.04-.08-.09-.13-.13L5.17,483.05c-6.22-6.31-6.22-16.44,0-22.75L349.44,113.36c3.11-3.01,7.27-4.71,11.6-4.72,4.36.1,8.49,1.98,11.42,5.2l23.44,25.63-23.47,21.82-12.17-13.31L39,471.75l52.02,52.41c27.83-17.42,64.02-13.24,87.15,10.07,23.17,23.49,27.3,59.77,10.01,87.87l52.02,52.41,36.72-37.02,22.57,22.75-48.08,48.38c-2.98,3.01-7.03,4.71-11.27,4.72"/>
  </g>
</svg>