<?xml version="1.0" encoding="UTF-8"?>
<svg id="Layer_2" data-name="Layer 2" xmlns="http://www.w3.org/2000/svg" viewBox="0 0 739.96 354.57">
  <defs>
    <style>
      .cls-1 {
        fill: #32cc7e;
      }
    </style>
  </defs>
  <path id="Path_50" data-name="Path 50" class="cls-1" d="M282.64,1.26l-7.08,21h-2.34l-6.15-17.91-6.18,17.91h-2.31l-7.08-21h2.28l6.06,18.06,6.27-18.06h2.07l6.18,18.15,6.15-18.15h2.13ZM298.78,15.03h-13.2c.19,3.22,2.95,5.68,6.17,5.49.01,0,.03,0,.04,0,1.84.06,3.6-.7,4.83-2.07l1.2,1.38c-1.54,1.72-3.78,2.67-6.09,2.58-4.92,0-8.28-3.36-8.28-8.04s3.27-8.01,7.71-8.01,7.65,3.27,7.65,8.01c0,.18-.03.42-.03.66M285.58,13.44h11.19c-.19-3.09-2.86-5.44-5.95-5.24-2.82.18-5.07,2.42-5.24,5.24M303.16,0h2.13v22.26h-2.13V0ZM309.64,14.37c-.14-4.29,3.22-7.88,7.51-8.01.21,0,.41,0,.62,0,2.47-.15,4.83,1.05,6.18,3.12l-1.59,1.08c-1.03-1.51-2.76-2.39-4.59-2.34-3.2-.1-5.88,2.41-5.98,5.62,0,.18,0,.36,0,.53-.21,3.19,2.21,5.94,5.4,6.14.19.01.38.02.57,0,1.82.07,3.56-.81,4.59-2.31l1.59,1.08c-1.36,2.06-3.71,3.25-6.18,3.12-4.3.19-7.94-3.14-8.13-7.44,0-.2,0-.4,0-.6M326.26,14.37c.05-4.43,3.68-7.98,8.11-7.94,4.36.05,7.89,3.57,7.94,7.94.05,4.43-3.5,8.06-7.94,8.11-4.43.05-8.06-3.5-8.11-7.94,0-.06,0-.12,0-.18M340.15,14.37c0-3.69-2.49-6.15-5.85-6.15-3.19-.06-5.83,2.47-5.89,5.66,0,.16,0,.33.01.49-.21,3.18,2.21,5.93,5.39,6.14.16.01.33.01.49.01,3.36,0,5.85-2.46,5.85-6.15M372.7,13.11v9.15h-2.13v-8.94c0-3.33-1.68-5.04-4.53-5.04-3.24,0-5.28,2.1-5.28,5.7v8.28h-2.13v-8.94c0-3.33-1.68-5.04-4.56-5.04-3.21,0-5.28,2.1-5.28,5.7v8.28h-2.13V6.48h2.04v2.88c1.24-1.98,3.46-3.14,5.79-3,2.61,0,4.65,1.11,5.61,3.33,1.3-2.18,3.7-3.46,6.24-3.33,3.84,0,6.36,2.22,6.36,6.75M392.29,15.03h-13.2c.19,3.22,2.95,5.68,6.17,5.49.01,0,.03,0,.04,0,1.84.06,3.6-.7,4.83-2.07l1.2,1.38c-1.54,1.72-3.78,2.67-6.09,2.58-4.92,0-8.28-3.36-8.28-8.04s3.27-8.01,7.71-8.01,7.65,3.27,7.65,8.01c0,.18-.03.42-.03.66M379.09,13.44h11.19c-.2-3.09-2.86-5.43-5.95-5.24-2.81.18-5.06,2.42-5.24,5.24M412.84,21.3c-.94.75-2.12,1.15-3.33,1.11-2.97,0-4.62-1.68-4.62-4.59v-9.54h-2.82v-1.8h2.82v-3.45h2.13v3.45h4.8v1.8h-4.8v9.42c0,1.86.96,2.88,2.73,2.88.85.02,1.68-.27,2.34-.81l.75,1.53ZM414.55,14.37c0-4.43,3.6-8.02,8.03-8.02,4.42,0,8.01,3.59,8.02,8.02,0,4.43-3.58,8.03-8.02,8.03-4.43,0-8.03-3.58-8.03-8.02v-.02M428.44,14.37c0-3.69-2.49-6.15-5.85-6.15-3.19-.06-5.83,2.47-5.89,5.66,0,.16,0,.33.01.49-.21,3.18,2.21,5.93,5.39,6.14.16.01.32.01.49.01,3.36,0,5.85-2.46,5.85-6.15M451.12,21.3c-.94.75-2.12,1.15-3.33,1.11-2.97,0-4.62-1.68-4.62-4.59v-9.54h-2.82v-1.8h2.82v-3.45h2.13v3.45h4.8v1.8h-4.8v9.42c0,1.86.96,2.88,2.73,2.88.85.02,1.68-.27,2.34-.81l.75,1.53ZM469.51,13.11v9.15h-2.13v-8.94c0-3.33-1.74-5.04-4.74-5.04-3.39,0-5.52,2.1-5.52,5.7v8.28h-2.13V0h2.13v9.24c1.33-1.93,3.57-3.03,5.91-2.88,3.84,0,6.48,2.22,6.48,6.75M489.1,15.03h-13.2c.19,3.22,2.95,5.68,6.17,5.49.01,0,.03,0,.04,0,1.84.06,3.6-.7,4.83-2.07l1.2,1.38c-1.54,1.72-3.78,2.67-6.09,2.58-4.92,0-8.28-3.36-8.28-8.04s3.27-8.01,7.71-8.01,7.65,3.27,7.65,8.01c0,.18-.03.42-.03.66M475.9,13.44h11.19c-.2-3.09-2.86-5.43-5.95-5.24-2.81.18-5.06,2.42-5.24,5.24M153.43,103.26h-2v-23.3h2c-.09,6.04,2.36,11.85,6.75,16,4.36,4.34,10.3,6.73,16.45,6.6,2.38.11,4.7-.74,6.45-2.35,1.67-1.64,2.56-3.91,2.45-6.25,0-2.93-1.9-5.43-5.7-7.5-2.07-1.07-5.63-2.75-10.7-5.05-3.76-1.57-7.35-3.53-10.7-5.85-4.01-2.91-6.1-7.79-5.45-12.7.5-5.27,2.48-9.35,5.95-12.25,3.26-2.82,7.44-4.37,11.75-4.35,4-.05,7.99.54,11.8,1.75,1.94.73,3.93,1.32,5.95,1.75,1.33,0,2-1.17,2-3.5h2v18.3h-2c.13-4.52-1.83-8.85-5.3-11.75-3.53-3.03-8.07-4.55-13.6-4.55-2.15-.12-4.25.66-5.8,2.15-1.31,1.23-2.07,2.95-2.1,4.75-.07,1.37.17,2.74.7,4,.58,1.05,1.42,1.93,2.45,2.55,1.16.77,2.18,1.38,3.05,1.85.87.47,2.25,1.1,4.15,1.9,1.9.8,3.22,1.37,3.95,1.7,3.67,1.67,5.83,2.65,6.5,2.95.67.3,1.63.78,2.9,1.45,1.01.5,1.96,1.11,2.85,1.8.63.53,1.45,1.2,2.45,2,.88.67,1.63,1.5,2.2,2.45.47.83.93,1.78,1.4,2.85.97,2.37,1.31,4.96,1,7.5-.53,5.4-2.55,9.52-6.05,12.35-3.5,2.83-8.22,4.25-14.15,4.25-5.55-.06-11.01-1.46-15.9-4.1-1.22-.74-2.58-1.22-4-1.4-2.47,0-3.7,1.33-3.7,4M235.23,101.26c10,0,15-5.67,15-17h2v19h-47v-2h5v-52h-5v-2h46v17h-2c0-5.93-1.18-9.92-3.55-11.95s-6.18-3.05-11.45-3.05h-9v24h4c4.8,0,7.83-.6,9.1-1.8,1.27-1.2,1.9-3.6,1.9-7.2h2v20h-2c0-3.73-.63-6.17-1.9-7.3s-4.3-1.7-9.1-1.7h-4v26h10ZM289.73,101.26c10,0,15-5.67,15-17h2v19h-47v-2h5v-52h-5v-2h46v17h-2c0-5.93-1.18-9.92-3.55-11.95s-6.18-3.05-11.45-3.05h-9v24h4c4.8,0,7.83-.6,9.1-1.8s1.9-3.6,1.9-7.2h2v20h-2c0-3.73-.63-6.17-1.9-7.3s-4.3-1.7-9.1-1.7h-4v26h10ZM339.23,103.26h-25v-2h5v-52h-5v-2h25c4.57-.07,9.1.76,13.35,2.45,3.65,1.42,6.94,3.62,9.65,6.45,4.82,5.07,7.5,11.8,7.5,18.8,0,9.47-2.5,16.55-7.5,21.25-5,4.7-12.67,7.05-23,7.05M334.23,101.26c7.2,0,12.4-1.95,15.6-5.85,3.2-3.9,4.8-10.27,4.8-19.1,0-8.83-1.73-15.55-5.2-20.15-3.47-4.6-8.53-6.9-15.2-6.9v52ZM420.73,84.26h2v19h-47v-2h5v-52h-5v-2h26v2h-6v52h10c1.9.03,3.79-.13,5.65-.5,1.67-.41,3.24-1.12,4.65-2.1,3.13-2.07,4.7-6.87,4.7-14.4M452.73,103.26h-25v-2h5v-52h-5v-2h25v2h-5v52h5v2ZM466.73,101.26h8v2h-16v-2h6v-47.6c-2.13-2.93-4.13-4.4-6-4.4v-2h18.7l28.1,33.3v-31.3h-8v-2h17v2h-7v55h-2l-38.8-48.1v45.1ZM567.43,99.41c-.82-1.01-2.05-1.58-3.35-1.55-1.55.07-3.03.67-4.2,1.7-1.6,1.25-3.27,2.4-5,3.45-2.07,1.21-4.45,1.82-6.85,1.75-9.07,0-16.08-2.33-21.05-7s-7.45-11.83-7.45-21.5c0-20.2,9.43-30.3,28.3-30.3,3.63.05,7.19.91,10.45,2.5,3.57,1.67,5.75,2.5,6.55,2.5.84-.02,1.61-.5,2-1.25.5-.72.78-1.57.8-2.45h1.9v20.3h-2c-.04-5.16-2.19-10.07-5.95-13.6-3.55-3.82-8.53-5.99-13.75-6-4,0-7.03,2.15-9.1,6.45-2.07,4.3-3.1,11.4-3.1,21.3s1.05,16.88,3.15,20.95,5.18,6.1,9.25,6.1c6.4,0,9.6-5.7,9.6-17.1v-7.4h-6.3v-2h24v2h-4.7v25h-1.9c.05-1.4-.42-2.77-1.3-3.85M206.23,139.26c0-5.93-.98-9.92-2.95-11.95-1.97-2.03-5.65-3.05-11.05-3.05h-3v52h7v2h-29v-2h7v-52h-3c-5.33,0-8.98,1.02-10.95,3.05-1.97,2.03-2.95,6.02-2.95,11.95h-2v-17h52.9v17h-2ZM272.93,124.26h-5v52h5v2h-25v-2h5v-26.8h-19.7v26.8h5v2h-25v-2h5v-52h-5v-2h25v2h-5v23.2h19.7v-23.2h-5v-2h25v2ZM309.93,176.26c10,0,15-5.67,15-17h2v19h-47v-2h5v-52h-5v-2h46v17h-2c0-5.93-1.18-9.92-3.55-11.95-2.37-2.03-6.18-3.05-11.45-3.05h-9v24h4c4.8,0,7.83-.6,9.1-1.8,1.27-1.2,1.9-3.6,1.9-7.2h2v20h-2c0-3.73-.63-6.17-1.9-7.3s-4.3-1.7-9.1-1.7h-4v26h10ZM393.73,176.26v2h-26.3v-2h5.9l-6.7-13.9h-20.2l-5.8,13.9h7.9v2h-17.1v-2h6.7l22.9-55h2.5l25.4,55h4.8ZM347.33,160.26h18.3l-9.8-20.4-8.5,20.4ZM447.63,139.26c0-5.93-.98-9.92-2.95-11.95-1.97-2.03-5.65-3.05-11.05-3.05h-3v52h7v2h-29v-2h7v-52h-3c-5.33,0-8.98,1.02-10.95,3.05-1.97,2.03-2.95,6.02-2.95,11.95h-2v-17h52.9v17h-2ZM513.93,179.26h-4.4c-8.33,0-14.13-1.8-17.4-5.4-2.76-3.14-4.6-6.98-5.3-11.1-.4-1.93-.83-3.7-1.3-5.3-1.07-3.6-3.23-5.4-6.5-5.4h-4.4v24.2h5v2h-25v-2h5v-52h-5v-2h26.3c17,0,25.5,4.97,25.5,14.9.11,3.69-1.47,7.23-4.3,9.6-3.09,2.54-7,3.86-11,3.7v.7c6.67,0,11.3,4.4,13.9,13.2,1.33,4.67,2.68,7.98,4.05,9.95,1.37,1.97,2.98,2.95,4.85,2.95v2ZM474.63,124.26v25.8c6.67,0,11.13-.97,13.4-2.9,2.27-1.93,3.4-5.17,3.4-9.7,0-4.53-1.17-7.87-3.5-10-2.33-2.13-6.77-3.2-13.3-3.2M548.93,176.26c10,0,15-5.67,15-17h2v19h-47v-2h5v-52h-5v-2h46v17h-2c0-5.93-1.18-9.92-3.55-11.95-2.37-2.03-6.18-3.05-11.45-3.05h-9v24h4c4.8,0,7.83-.6,9.1-1.8,1.27-1.2,1.9-3.6,1.9-7.2h2v20h-2c0-3.73-.63-6.17-1.9-7.3-1.27-1.13-4.3-1.7-9.1-1.7h-4v26h10ZM194.59,219.56h-2c-.01-5.36-1.8-10.57-5.1-14.8-3.4-4.53-8.27-6.8-14.6-6.8-3.53,0-6.45,2.07-8.75,6.2s-3.45,11.2-3.45,21.2c0,10,1.15,17.07,3.45,21.2,2.07,4,6.3,6.43,10.8,6.2,4.57.12,9.01-1.53,12.4-4.6,3.37-3.07,5.45-7.4,6.25-13h2c-.93,6.6-3.25,11.52-6.95,14.75-3.65,3.22-8.38,4.95-13.25,4.85-9.93,0-17.55-2.38-22.85-7.15-5.3-4.77-7.95-12.23-7.95-22.4,0-10.17,2.58-17.58,7.75-22.25,5.17-4.67,12.02-7,20.55-7,4.71.03,9.34,1.31,13.4,3.7,1.02.73,2.21,1.18,3.45,1.3.89,0,1.71-.47,2.15-1.25.5-.72.78-1.57.8-2.45h1.9v22.3ZM258.29,225.71c0,9.17-2.7,16.22-8.1,21.15-5.4,4.93-12.43,7.4-21.1,7.4-8.67,0-15.67-2.45-21-7.35-5.33-4.9-8-11.93-8-21.1s2.67-16.42,8-21.75c5.33-5.33,12.42-8,21.25-8,8.83,0,15.87,2.65,21.1,7.95,5.23,5.3,7.85,12.53,7.85,21.7M238.74,205.21c-2.3-4.77-5.47-7.15-9.5-7.15-4.03,0-7.22,2.4-9.55,7.2-2.33,4.8-3.5,11.5-3.5,20.1,0,8.6,1.12,15.23,3.35,19.9,2.23,4.67,5.45,7,9.65,7,8.67,0,13-9.03,13-27.1,0-8.53-1.15-15.18-3.45-19.95M335.69,199.26h-5v52h5v2h-25v-2h5v-48.3l-19.8,51.3h-2.3l-22.2-52.7v49.7h8v2h-16v-2h6v-52h-6.1v-2h22.3l15.6,37.5,14.5-37.5h20v2ZM367.69,251.26v2h-25v-2h5v-52h-5v-2h19.9c19.6-.93,29.4,5.37,29.4,18.9.23,5.58-2.61,10.83-7.4,13.7-4.93,3.13-12.23,4.47-21.9,4v17.4h5ZM362.69,199.26v32.6c5.47,0,9.2-1.18,11.2-3.55,2-2.37,3-6.52,3-12.45,0-5.93-1-10.18-3-12.75-2-2.57-5.73-3.85-11.2-3.85M458.29,251.26v2h-26.3v-2h5.9l-6.7-13.9h-20.2l-5.8,13.9h7.9v2h-17.1v-2h6.7l22.9-55h2.5l25.4,55h4.8ZM411.89,235.26h18.3l-9.8-20.4-8.5,20.4ZM469.29,251.26h8v2h-16v-2h6v-47.6c-2.13-2.93-4.13-4.4-6-4.4v-2h18.7l28.1,33.3v-31.3h-8v-2h17v2h-7v55h-2l-38.8-48.1v45.1ZM562.19,253.26h-23v-2h4v-21.1l-17.9-30.9h-5.2v-2h28v2h-4.9l14,25.2,13-25.2h-8v-2h17.5v2h-7l-14.5,28.2v23.8h4v2ZM379.66,282.11c-.54-.45-1.43-3.93-2.08-3.94-1.2.67-1.86,2.98-2.84,3.55-2.76,1.59-6.91-.64-1.61,4.15l-.63,4.34c.35.39,3.28-1.76,3.96-1.75.87.01,2.86,2.33,4.33,1.75-.43-3.56.13-4.82,2.64-7.15-.9-.21-3.14-.43-3.76-.95M354.77,281.34c-.64.41-4.28,1.07-4.5,1.34l3.04,2.5-.4,4.65c.47.34,3.28-1.77,4.02-1.81.8-.05,3,1.92,4.27,1.43l-.29-4.29,2.55-2.86c-3.5-.05-4.52-1.47-5.66-4.52-.98-.68-2.31,3.1-3.03,3.55M335.18,282.09c-.64.41-4.28,1.07-4.5,1.35l3.04,2.5-.4,4.65c.47.34,3.28-1.77,4.02-1.81.8-.05,3,1.92,4.27,1.43l-.29-4.29,2.55-2.86c-3.5-.05-4.52-1.47-5.66-4.52-.98-.68-2.31,3.1-3.03,3.55M680.66,97.4c.61,3.29,2.23,6.72,2.63,10.01.65,5.43.04,9.78-3.75,13.91-2.11,2.29-11,9.23-12.04,2.98-.84-5.03,1.95-6.32,4.19-10.08,2.62-4.4,6.26-11.23,4.86-16.28-14.31-2-29.36,2.82-41.58,10.08-21.14,12.55-39.97,38.67-29.26,63.95,6.22-9.15,15.12-18.7,26.92-19.6,28.46-2.16,26.62,44.85-1.45,41.4-7.07-.87-16.91-6.21-21.7-11.45-1.04-1.14-2.06-3.1-2.99-4.08-.3-.31-.25-.35-.78-.24-2.37,5.73-5.16,11.32-7.06,17.24-6.99,21.8-6.47,52.06,8.19,70.68,16.56,21.03,47.4,22.6,68.01,6.59-2.99-10.6-9.36-21.87-18.93-27.78-10-.17-20.01,1.48-30.02.26-5.37-.66-13.03-7.79-5.5-11.07,5.91-2.57,14.88-1.7,20.92.18,4.38,1.36,8.39,3.92,12.61,5.66-3.61-8.63-7.15-19.71,1.5-26.56,4.57-3.62,13.62-3.8,15.43,2.67,2.6,9.3-8.21,19.15-10.91,27.45.09.91,4.66,4.9,5.65,6.05,5.34,6.21,8.81,13.73,11.88,21.26,11.53-8.4,20.33-20.68,25.61-33.89,6.83-17.1,10.48-47.99-8.59-58.43-5.69-3.12-17.82-4.59-21.74-8.77-3.49-3.72.1-10.28,5.09-10.77,10.25-1.01,17.98,6.34,23.56,13.95-1.45-6.32-3.5-13.14-.26-19.29,2.16-4.12,4.31-4.62,7.98-1.79,9.64,7.42,5.1,21.84,1.33,31.25,7.09-2.91,24.79-3.2,29.08,4.26,2.22,3.87-4.26,7.07-7.42,7.42-7.63.84-15.79-4.91-23.55-4.9-.16,2.47.91,4.73,1.33,7.15,5.07,29.27-8.22,59.29-31.66,76.81,2.89,13.02,1.5,23.59-6.28,34.42-19.32,26.88-52.05,25.96-81.02,18.22-30.51-8.15-60.13-20.13-91-26.91-31.53-6.92-64.13-10.48-96.34-12.53-.79-.05-5.13-.48-5.31-.73-.44-1.84.18-2.48,1.91-2.66,4.43-.47,13.61.72,18.47,1.13,36.89,3.13,75.91,9.2,111.32,19.77,20.37,6.08,40.83,13.79,61.33,19.29,16.82,4.51,32.32,7.48,49.51,2.63,21.9-6.17,41.19-26.12,35.16-50.36-.45-.58-.42-.22-.82-.05-1.52.63-3.74,2.41-5.4,3.27-29.62,15.47-63.11,4.01-74.02-28.08-8.28-24.34-3.63-53.3,8.4-75.58-19.29-42.75,32.31-84.83,72.51-80,5.91-5.72,19.83-14.1,28.13-11.04,5.26,1.94,1.8,7.3-1.53,9.37-1.94,1.1-4.08,1.78-6.29,2-5.26.9-10.95,1.05-16.28,1.62M631.98,155.12c-10.15,1.15-20.15,11.23-24.39,20.05,4.26,7.9,14.74,14.73,23.57,15.96,25.05,3.48,26.05-38.86.81-36M135.9,303.77c.81-5.94-2.27-11.74-7.65-14.38-13.94-6.27-30.34,8.71-42.57,14.08-10.69,4.69-25.47,7.52-36.56,2.89-15.01-6.27-25.43-21.63-21.41-38.14-10.54-6.83-18.37-18.24-22.79-29.91-8.49-22.42-6.44-51.38,9.66-69.93l-3.94-2.46c-4.91-4.24-1.31-10.91,3.49-13.44,5.95-3.13,11.27-1.67,17.41-.11-4.55-7.96-7.3-19.07-3.57-27.86,2-4.73,8.47-9.54,13.5-6.35,10.78,6.86.29,23.03-4.27,30.82l7.65-4.21c6.83-2.62,13.66-4.32,20.7-1.35,6.08,2.57,9.93,10.92,2.42,14.29-5.64,2.54-9.86-.04-15.26-1.09-5.95-1.16-12.02-2.3-18.07-1.34-2.17,2.65-3.34,5.91-5.94,8.38-3.94,3.75-5.46,3.26-10,4.7-1.91.6-6.83,8.1-7.95,10.12-8.38,15.1-10.17,36.08-5.4,52.6,3.69,12.78,11.54,26.65,22.96,33.89.54-.11,2.05-4.47,2.55-5.38,3.27-6.06,11.08-13.63,16.76-17.51,13.45-9.18,33.78-10.2,43.6-24.21,2.19-3.13,3.73-5.31.61-8.45-8.48-8.55-26.73-1.25-35.58-11.51-2.2-2.75-1.75-6.75.99-8.95.1-.08.2-.16.31-.23,1.91-1.19,8.03-1.81,10.36-1.72,10.67.39,20.07,9.95,25.79,18.09-1.73-9.45-5.72-17.08-3.36-26.9,2.03-8.44,9.28-14.2,13.17-3.05,4.83,13.81-2.09,33.86-10.62,45.14-11.39,15.06-33.07,15.14-47.58,27-5.86,4.79-12.24,11.9-14.1,19.32,8.75,5.26,18.96,5.13,28.68,2.79,17-4.09,33.94-14.63,44.52-28.56,32.72-43.08,25.79-102.45-9-141.95-1.47-1.67-7.69-8.51-9.17-9.29-3-1.56-8.92-1.48-12.32-1.27-5.73.36-11.11,2.79-16.93,2.27-8.2-.73-7.76-6.33-1.21-9.48,8.64-4.15,16.87-3.2,25,1.51l4.64,3.07c.03-6.46.05-21.36,6.58-24.86,3.38-1.81,5.13,1.49,5.68,4.51,1.15,6.32-.7,14.75-4.74,19.78-.58.72-3.46,3.11-3.36,3.72,14.77,14.23,26.51,31.62,32.72,51.29,11.04,34.93,7.29,70.27-14.14,100.3-14.3,20.05-47.14,39.22-72.11,31.49-1.78-.55-3.38-1.56-5.02-2.14-.34-.12-.49-.55-.82.06-2.01,3.64.37,13.96,2.25,17.73,9.72,19.4,30.52,21.6,49.17,14.47,14.97-5.72,33-23.74,49.62-14.17,5.27,3.04,8.19,10.31,7.66,16.26,16.37,2.42,31.98,9.81,43.13,22.15,13.91-9.21,28.86-16.74,44.54-22.42,15.14-5.58,30.76-9.75,46.67-12.47,11.01-1.8,25.12-4,36.12-4.56,1.27-.07,9.15-.4,6.04,2.27-1.44,1.24-10.57,1.24-13.15,1.54-25.73,2.98-50.27,6.87-74.65,15.76-15.44,5.63-29.92,13.28-43.88,21.86,1.54,3.08,3.79,5.87,4.35,9.39,1.54,9.7-4.58,20.9-15.54,15.53-11.04-5.41-2.86-16.86,3.27-22.48,3.48-3.19,5.04-2.06.39-6.4-10.39-9.7-24.12-15.23-38.05-17.51-1.76,8.13-10.77,18.31-18.84,20.53-9.14,2.52-17.08-7.13-11.08-15.22,3.09-4.17,12.58-8.32,17.67-8.32h9.98ZM135.14,306.41c-6.9-1.29-27.28,2.55-26.35,12.19.49,5.13,6.02,6.99,10.45,5.61,6.64-2.08,14.57-10.91,15.9-17.8M181.3,330.15c-5.53,3.24-16.78,14.79-8.16,20.18,3.37,2.11,7.59,1.98,10.01-1.4,4.26-5.92,2.38-13.48-1.85-18.78"/>
</svg>